<svg width="162" height="25" fill="none" xmlns="http://www.w3.org/2000/svg"><mask id="path-1-inside-1_41498_96" fill="#fff"><path fill-rule="evenodd" clip-rule="evenodd" d="M7.283 19.178c-2.747 0-4.625-2.228-4.625-5.127 0-2.93 1.928-5.17 4.67-5.17 1.21 0 2.483.434 3.46 1.156l1.1-1.652c-1.274-1.052-3.059-1.633-4.75-1.633-3.988 0-7.013 3.169-7.013 7.353 0 4.105 2.93 7.233 6.925 7.233 1.706 0 3.602-.576 4.857-1.61l-1.119-1.695c-.93.68-2.25 1.145-3.506 1.145h.001Zm18.514-7.82c0-2.554-1.797-4.412-4.887-4.412h-4.922V21.13h2.455v-5.318h2.04l2.955 5.323h2.909L22.99 15.47c1.766-.655 2.807-2.178 2.807-4.111h-.001Zm8.39-4.412-4.98 14.18h2.563l1.157-3.563h5.296l1.17 3.563h2.696L37.041 6.948h-2.865l.011-.002ZM55.207 8.7V6.955h-9.883v2.062h6.747L45.08 19.418v1.72h10.232V19.05H48.19l7.04-10.345-.023-.004Zm9.502 4.186L61.3 6.953h-2.852l4.966 8.278v5.899h2.47v-5.912l5.063-8.272h-2.67l-3.565 5.937-.002.004Zm17.15.741c1.077-.568 1.691-1.597 1.691-2.995 0-2.323-1.678-3.678-4.475-3.678h-4.638v14.179h5.416c2.742 0 4.57-1.665 4.57-4.015 0-1.796-1.091-3.075-2.592-3.491h.028Zm11.038-6.673-4.98 14.179h2.56l1.16-3.563h5.293l1.173 3.563h2.701l-5.038-14.18H92.897Zm19.76 6.673c1.081-.568 1.702-1.597 1.702-2.995 0-2.323-1.665-3.678-4.475-3.678h-4.639v14.179h5.43c2.742 0 4.584-1.665 4.584-4.015 0-1.796-1.091-3.075-2.578-3.491h-.024Zm11.638-.74-3.397-5.933h-2.865l4.966 8.277v5.903h2.476V15.22l5.048-8.264h-2.661l-3.574 5.933h.007Zm-16.593-3.854h1.883c1.378 0 2.315.532 2.315 1.836 0 1.351-.968 1.987-2.196 1.987h-2.006V9.034h.004Zm2.613 10.009H107.7v-4.195h2.438c1.564 0 2.592.67 2.592 2.104 0 1.432-1.028 2.09-2.418 2.09h.003Zm-18.032-3.481 1.992-6.1 2.019 6.092h-4.011v.008ZM76.902 9.034h1.883c1.378 0 2.314.532 2.314 1.836 0 1.351-.97 1.987-2.192 1.987h-2.005V9.034Zm2.613 10.009h-2.606v-4.195h2.442c1.569 0 2.592.67 2.592 2.104 0 1.432-1.023 2.09-2.415 2.09h-.013Zm-45.936-3.481 1.992-6.1 2.019 6.092h-4.011v.008Zm-12.99-1.846h-2.141V9.043h2.141c1.647 0 2.715.791 2.715 2.35 0 1.488-.968 2.32-2.715 2.32v.003ZM152.92 3.55c-1.003-.323-1.397-1.02-1.967-1.782A5.115 5.115 0 0 0 148.471 0c.472 1.446-.431 3.007-1.955 3.433-2.699.687-5.045 2.274-6.607 4.468-1.561 2.194-2.232 4.847-1.89 7.472.343 2.625 1.676 5.044 3.755 6.813 2.078 1.769 4.762 2.767 7.557 2.812 2.795.046 5.513-.866 7.654-2.567 2.141-1.7 3.561-4.076 3.997-6.688.437-2.612-.138-5.286-1.619-7.529-1.482-2.243-3.769-3.904-6.443-4.677l-.001.013Zm-3.381 17.594a5.373 5.373 0 0 1-3.69-1.446c-.978-.926-1.528-2.182-1.528-3.491 0-1.31.55-2.565 1.528-3.491a5.374 5.374 0 0 1 3.69-1.446c1.384 0 2.712.52 3.69 1.446.979.926 1.529 2.182 1.529 3.49 0 1.31-.55 2.566-1.529 3.492a5.372 5.372 0 0 1-3.69 1.446Z"/></mask><path fill-rule="evenodd" clip-rule="evenodd" d="M7.283 19.178c-2.747 0-4.625-2.228-4.625-5.127 0-2.93 1.928-5.17 4.67-5.17 1.21 0 2.483.434 3.46 1.156l1.1-1.652c-1.274-1.052-3.059-1.633-4.75-1.633-3.988 0-7.013 3.169-7.013 7.353 0 4.105 2.93 7.233 6.925 7.233 1.706 0 3.602-.576 4.857-1.61l-1.119-1.695c-.93.68-2.25 1.145-3.506 1.145h.001Zm18.514-7.82c0-2.554-1.797-4.412-4.887-4.412h-4.922V21.13h2.455v-5.318h2.04l2.955 5.323h2.909L22.99 15.47c1.766-.655 2.807-2.178 2.807-4.111h-.001Zm8.39-4.412-4.98 14.18h2.563l1.157-3.563h5.296l1.17 3.563h2.696L37.041 6.948h-2.865l.011-.002ZM55.207 8.7V6.955h-9.883v2.062h6.747L45.08 19.418v1.72h10.232V19.05H48.19l7.04-10.345-.023-.004Zm9.502 4.186L61.3 6.953h-2.852l4.966 8.278v5.899h2.47v-5.912l5.063-8.272h-2.67l-3.565 5.937-.002.004Zm17.15.741c1.077-.568 1.691-1.597 1.691-2.995 0-2.323-1.678-3.678-4.475-3.678h-4.638v14.179h5.416c2.742 0 4.57-1.665 4.57-4.015 0-1.796-1.091-3.075-2.592-3.491h.028Zm11.038-6.673-4.98 14.179h2.56l1.16-3.563h5.293l1.173 3.563h2.701l-5.038-14.18H92.897Zm19.76 6.673c1.081-.568 1.702-1.597 1.702-2.995 0-2.323-1.665-3.678-4.475-3.678h-4.639v14.179h5.43c2.742 0 4.584-1.665 4.584-4.015 0-1.796-1.091-3.075-2.578-3.491h-.024Zm11.638-.74-3.397-5.933h-2.865l4.966 8.277v5.903h2.476V15.22l5.048-8.264h-2.661l-3.574 5.933h.007Zm-16.593-3.854h1.883c1.378 0 2.315.532 2.315 1.836 0 1.351-.968 1.987-2.196 1.987h-2.006V9.034h.004Zm2.613 10.009H107.7v-4.195h2.438c1.564 0 2.592.67 2.592 2.104 0 1.432-1.028 2.09-2.418 2.09h.003Zm-18.032-3.481 1.992-6.1 2.019 6.092h-4.011v.008ZM76.902 9.034h1.883c1.378 0 2.314.532 2.314 1.836 0 1.351-.97 1.987-2.192 1.987h-2.005V9.034Zm2.613 10.009h-2.606v-4.195h2.442c1.569 0 2.592.67 2.592 2.104 0 1.432-1.023 2.09-2.415 2.09h-.013Zm-45.936-3.481 1.992-6.1 2.019 6.092h-4.011v.008Zm-12.99-1.846h-2.141V9.043h2.141c1.647 0 2.715.791 2.715 2.35 0 1.488-.968 2.32-2.715 2.32v.003ZM152.92 3.55c-1.003-.323-1.397-1.02-1.967-1.782A5.115 5.115 0 0 0 148.471 0c.472 1.446-.431 3.007-1.955 3.433-2.699.687-5.045 2.274-6.607 4.468-1.561 2.194-2.232 4.847-1.89 7.472.343 2.625 1.676 5.044 3.755 6.813 2.078 1.769 4.762 2.767 7.557 2.812 2.795.046 5.513-.866 7.654-2.567 2.141-1.7 3.561-4.076 3.997-6.688.437-2.612-.138-5.286-1.619-7.529-1.482-2.243-3.769-3.904-6.443-4.677l-.001.013Zm-3.381 17.594a5.373 5.373 0 0 1-3.69-1.446c-.978-.926-1.528-2.182-1.528-3.491 0-1.31.55-2.565 1.528-3.491a5.374 5.374 0 0 1 3.69-1.446c1.384 0 2.712.52 3.69 1.446.979.926 1.529 2.182 1.529 3.49 0 1.31-.55 2.566-1.529 3.492a5.372 5.372 0 0 1-3.69 1.446Z" fill="#000" stroke="#000" stroke-width="2" mask="url('#path-1-inside-1_41498_96')"/></svg>